<svg xmlns="http://www.w3.org/2000/svg" width="128" height="128" viewBox="0 0 128 128">
  <defs>
    <linearGradient id="g" x1="0%" y1="0%" x2="100%" y2="100%">
      <stop offset="0%" stop-color="#f3b691"/>
      <stop offset="100%" stop-color="#c26749"/>
    </linearGradient>
  </defs>
  <rect width="128" height="128" rx="34" fill="#fff6ef"/>
  <path
    d="M64 26c-12.6 0-21.9 8.2-21.9 20.8 0 7.8 3.5 13.8 10.5 19.2l6.3 5-6.7 5.7c-7 6-10.7 12.4-10.7 19.9C41.5 108 51.2 118 64 118s22.5-10.1 22.5-21.9c0-7.4-3.8-13.8-10.9-19.9l-6.7-5.7 6.3-5c7-5.5 10.5-11.4 10.5-19.2C85.7 34.2 76.4 26 64 26Zm0 8.8c7.5 0 12.9 4.5 12.9 11.3 0 4.3-1.9 7.4-6.7 11.1l-6.2 4.9-6.2-4.9c-4.9-3.7-6.7-6.9-6.7-11.1 0-6.9 5.4-11.3 12.9-11.3Zm0 40.4 6.5 5.5c5.2 4.3 7.3 7.8 7.3 12.4 0 6.6-5.1 11.9-13.8 11.9s-13.8-5.3-13.8-11.9c0-4.7 2.2-8.2 7.3-12.4Z"
    fill="url(#g)"
  />
</svg>

